<svg id="visual" viewBox="0 0 300 290" width="300" height="290" xmlns="http://www.w3.org/2000/svg" xmlns:xlink="http://www.w3.org/1999/xlink" version="1.1"><rect x="0" y="0" width="300" height="290" fill="#395b65"></rect><path d="M0 100L12.5 104.5C25 109 50 118 75 109.8C100 101.7 125 76.3 150 67.5C175 58.7 200 66.3 225 67C250 67.7 275 61.3 287.5 58.2L300 55L300 0L287.5 0C275 0 250 0 225 0C200 0 175 0 150 0C125 0 100 0 75 0C50 0 25 0 12.5 0L0 0Z" fill="#d167c9"></path><path d="M0 105L12.5 105C25 105 50 105 75 94.2C100 83.3 125 61.7 150 56C175 50.3 200 60.7 225 69.2C250 77.7 275 84.3 287.5 87.7L300 91L300 0L287.5 0C275 0 250 0 225 0C200 0 175 0 150 0C125 0 100 0 75 0C50 0 25 0 12.5 0L0 0Z" fill="#e296de"></path></svg>